<?xml version="1.0" standalone="no"?>
<!DOCTYPE svg PUBLIC "-//W3C//DTD SVG 20010904//EN"
 "http://www.w3.org/TR/2001/REC-SVG-20010904/DTD/svg10.dtd">
<svg version="1.0" xmlns="http://www.w3.org/2000/svg"
 width="1303.000000pt" height="1303.000000pt" viewBox="0 0 1303.000000 1303.000000"
 preserveAspectRatio="xMidYMid meet">
<metadata>
Created by potrace 1.14, written by Peter Selinger 2001-2017
</metadata>
<g transform="translate(0.000000,1303.000000) scale(0.100000,-0.100000)"
fill="#000000" stroke="none">
<path d="M0 6520 l0 -2540 6515 0 6515 0 0 2540 0 2540 -6515 0 -6515 0 0
-2540z m1179 1973 c115 -352 1020 -3122 1059 -3242 10 -31 -3 -65 211 564 188
555 532 1565 854 2512 l212 623 420 0 420 0 614 -1860 c338 -1023 617 -1864
620 -1869 3 -5 287 832 631 1860 l625 1869 433 0 c237 0 432 -3 432 -7 0 -4
-105 -325 -234 -713 -129 -388 -494 -1487 -811 -2442 l-576 -1738 -482 0 -482
0 -604 1808 c-333 994 -605 1808 -606 1810 -4 5 -34 -83 -960 -2808 -145 -426
-266 -783 -270 -793 -7 -16 -37 -17 -493 -15 l-486 3 -222 670 c-122 369 -430
1298 -684 2065 -254 767 -517 1564 -586 1770 -68 207 -124 379 -124 383 0 4
211 7 470 7 l469 0 150 -457z m9768 -68 c129 -286 624 -1382 1100 -2435 476
-1053 867 -1921 870 -1928 4 -10 -91 -12 -472 -10 l-477 3 -242 560 -242 560
-1229 0 -1229 0 -238 -559 c-130 -307 -239 -560 -241 -562 -2 -2 -213 -3 -470
-2 l-465 3 1101 2448 1102 2447 448 -2 449 -3 235 -520z"/>
<path d="M9798 6973 l-456 -1068 459 -3 c252 -1 665 -1 917 0 l458 3 -458
1060 c-251 583 -459 1064 -460 1068 -2 4 -209 -473 -460 -1060z"/>
</g>
</svg>
